<svg width="58" height="50" viewBox="0 0 58 50" fill="none" xmlns="http://www.w3.org/2000/svg">
<path d="M55.2334 22.6712C55.1016 23.0666 54.9698 23.5939 54.838 23.9893C54.7062 24.9119 54.3107 25.7028 54.0471 26.4937C53.9153 26.7573 53.7835 27.4163 53.5199 27.6799C52.8608 28.6026 52.4654 29.5253 51.9382 30.4479C51.2791 31.766 50.6201 32.9523 49.6974 34.0068C48.9066 34.9294 48.5111 35.7203 47.8521 36.5112C46.7976 37.8292 45.4795 39.2791 44.2932 40.3336C41.2616 43.2334 38.23 45.606 34.4075 47.4513C30.5851 49.2966 25.9718 50.2193 21.7539 49.9557C19.9085 49.8239 18.0632 49.4285 16.3497 49.033C15.427 48.9012 14.6362 48.374 13.7135 48.1104C12.659 47.7149 11.4727 47.3195 10.4183 46.9241C9.3638 46.3968 8.0457 45.3424 6.99123 44.6833C3.95962 42.838 1.58705 40.4654 0.13715 36.9066C-0.126469 36.3793 0.00534069 35.3249 0.400768 35.0613C0.796196 34.6658 1.19162 34.4022 1.58705 34.2704C2.11429 34.0068 2.64153 33.6114 3.16876 33.7432C3.43238 33.7432 4.09143 33.875 4.35505 34.0068C5.01409 34.2704 5.54133 34.534 6.20037 34.7976C7.25485 35.1931 8.30932 35.8521 9.4956 36.1157C11.6046 36.643 13.8453 36.5112 15.9543 36.2475C16.6133 36.1157 17.7996 35.9839 18.3268 35.8521C20.8312 35.1931 22.5447 34.534 24.6537 33.3477C25.9718 32.6887 27.0262 31.8978 28.2125 30.9752C28.4761 30.7115 29.267 30.4479 29.5306 30.1843C30.0578 29.6571 30.5851 29.1298 31.1123 28.6026C33.3531 26.4937 35.7256 24.3847 37.4392 21.7485C37.7028 21.3531 37.8346 20.9577 38.0982 20.694C38.3618 20.2986 38.7573 19.9032 38.8891 19.376C39.1527 18.7169 39.4163 18.1897 39.8117 17.5306L41.1298 13.9718C41.3934 13.1809 41.6571 12.3901 42.1843 11.5992C42.7115 10.6765 43.5024 10.0175 44.2932 9.35845C44.8205 8.83122 45.3477 8.43579 46.0068 8.17217C47.193 7.64493 48.5111 7.38132 49.8292 7.51313C50.2247 7.51313 50.6201 7.90855 51.0155 7.90855C51.0155 7.1177 51.1473 6.59046 51.4109 6.19503C51.8064 5.53599 51.9382 4.87694 52.3336 4.2179C53.1245 2.8998 53.5199 1.71352 54.5744 0.527237C54.838 0.263618 55.1016 0 55.497 0C55.497 0 55.7606 0 56.1561 0.131809C56.6833 0.395428 56.9469 0.790855 57.0787 0.790855C57.2105 0.922665 57.3424 1.31809 57.3424 1.31809C57.4742 2.10895 56.9469 3.03161 56.6833 3.82247C56.0243 5.27237 55.6288 6.59046 54.7062 7.90855C54.4426 8.17217 54.1789 8.69941 54.3107 9.09484C54.3107 9.22665 54.7062 9.35845 54.838 9.49026C55.8924 10.5447 56.6833 11.2038 57.0787 13.1809C57.2105 14.1036 57.3424 14.8944 57.3424 15.8171C57.3424 17.3988 57.0787 18.8487 56.5515 20.2986C56.4197 20.4304 55.497 22.1439 55.2334 22.6712Z" fill="black"/>
</svg>
