<svg width="66" height="51" viewBox="0 0 66 51" fill="none" xmlns="http://www.w3.org/2000/svg">
<path d="M39.2433 9.76943C39.1142 9.64034 38.9851 9.51125 38.856 9.51125C38.5978 9.38216 38.3396 9.12398 38.0814 8.99489C38.4687 8.99489 38.9851 8.99489 39.3723 8.99489C39.5014 8.99489 39.6305 8.99489 39.6305 8.99489C39.6305 8.99489 39.5014 8.8658 39.3723 8.8658C39.2432 8.8658 39.2432 8.73671 39.1142 8.73671C38.9851 8.60762 38.7269 8.60762 38.5978 8.60762C38.4687 8.60762 38.3396 8.47853 38.2105 8.47853C38.3396 8.47853 38.5978 8.47853 38.5978 8.34945C38.7269 8.34945 38.856 8.22036 38.9851 8.22036C39.1141 8.09127 39.2432 8.09127 39.3723 7.96218C39.5014 7.83309 39.5014 7.704 39.5014 7.57491C39.5014 7.44582 39.3723 7.44582 39.2433 7.44582C38.9851 7.31673 38.856 7.44582 38.5978 7.44582C38.4687 7.44582 38.3396 7.44582 38.2105 7.44582C38.3396 7.44582 38.7269 7.18764 38.856 7.05855C38.9851 6.92946 38.9851 6.92946 39.1142 6.80037C39.1142 6.67128 39.2433 6.54219 39.2433 6.4131C39.2433 6.28401 39.2433 6.15492 39.2433 6.02583C39.1142 6.02583 38.856 6.28401 38.7269 6.4131C38.4687 6.4131 38.4687 6.54219 38.2105 6.54219C38.2105 6.4131 38.4687 6.15492 38.4687 6.02583C38.4687 5.89674 38.5978 5.76765 38.5978 5.63856C38.7269 5.50947 38.7269 5.38038 38.7269 5.25129C38.7269 5.1222 38.856 5.1222 38.856 4.99311L38.9851 4.73494C38.856 4.73494 38.856 4.86403 38.7269 4.86403C38.5978 5.1222 38.4687 5.1222 38.4687 5.25129L38.3396 5.38038C38.3396 5.25129 38.4687 5.1222 38.4687 4.99311C38.5978 4.86403 38.5978 4.73494 38.5978 4.60585C38.5978 4.47676 38.7269 4.47676 38.7269 4.34767C38.7269 4.21858 38.856 4.08949 38.856 3.9604C38.856 3.83131 38.9851 3.70222 38.9851 3.44404C38.9851 3.31495 39.1141 3.05677 38.9851 2.92768C38.9851 3.05677 38.856 3.05677 38.7269 3.05677C38.5978 3.05677 38.5978 3.18586 38.4687 3.31495C38.3396 3.44404 38.2105 3.70222 38.0814 3.83131C38.0814 3.9604 37.9524 3.9604 37.9524 4.08949C37.9524 4.08949 37.9524 4.08949 37.9524 4.21858C38.0814 4.08949 38.0814 3.9604 38.2105 3.83131C38.2105 3.70222 38.3396 3.57313 38.3396 3.44404C38.3396 3.31495 38.4687 3.18586 38.4687 2.92768C38.4687 2.79859 38.4687 2.6695 38.3396 2.6695C38.2105 2.6695 38.0814 2.6695 37.9524 2.79859C37.5651 2.92768 37.436 3.05677 37.1778 3.31495L37.0487 3.57313C37.0487 3.44404 37.0487 3.18586 37.0487 2.79859C37.0487 2.54041 37.0487 2.28223 37.1778 2.02405V1.89496C37.1778 1.76587 37.1778 1.63679 37.1778 1.5077V1.37861H37.0487C37.0487 1.37861 36.9196 1.5077 36.9196 1.63679C36.9196 1.76588 36.7906 2.02405 36.6615 2.02405C36.6615 2.02405 36.4033 2.54041 36.2742 2.6695C36.2742 2.6695 36.2742 2.41132 36.2742 2.28223C36.2742 2.15314 36.2742 2.02405 36.2742 1.89496C36.2742 1.63679 36.2742 1.63679 36.2742 1.37861C36.2742 1.24952 36.2742 0.862248 36.2742 0.862248C36.1451 0.991337 36.016 1.12043 36.016 1.12043C35.8869 1.24952 35.7578 1.37861 35.7578 1.5077C35.7578 1.63679 35.6287 1.76587 35.6287 1.89496C35.6287 2.02405 35.6287 2.15314 35.4996 2.15314C35.3706 2.15314 35.3706 1.76588 35.2415 1.63679C35.2415 1.5077 35.2415 1.37861 35.2415 1.24952V0.991337C35.2415 0.862248 34.9833 1.24952 34.8542 1.24952C34.8542 1.37861 34.7251 1.5077 34.596 1.63679C34.4669 1.76588 34.4669 1.89496 34.4669 2.02405C34.4669 2.15314 34.3378 2.15314 34.3378 2.28223C34.3378 2.41132 34.2087 2.54041 34.2087 2.54041C34.0797 2.6695 34.0797 2.28223 33.9506 2.15314C33.9506 2.02405 33.9506 1.89496 33.9506 1.76587C33.9506 1.37861 33.9506 0.991337 33.8215 0.733158C33.8215 0.604069 33.6924 0.733158 33.5633 0.862248C33.4342 0.991337 33.4342 1.24952 33.176 1.5077C33.0469 1.63679 32.9179 1.89496 32.7888 2.02405C32.6597 2.15314 32.6597 2.28223 32.6597 2.15314C32.5306 2.02405 32.5306 1.63679 32.5306 1.5077C32.5306 1.37861 32.4015 0.862248 32.4015 0.862248C32.2724 0.991337 32.1433 1.24952 32.0142 1.5077C31.8851 1.76588 31.756 2.02405 31.627 2.28223C31.4979 2.41132 31.2397 2.79859 31.1106 2.6695C30.9815 2.54041 30.9815 2.41132 30.9815 2.28223C30.9815 2.15314 30.9815 2.02405 30.9815 1.89496C30.9815 1.63679 30.9815 1.37861 30.9815 1.12043C30.7233 1.24952 30.4651 1.5077 30.3361 1.89496C30.207 2.02405 30.207 2.15314 30.0779 2.28223C30.0779 2.41132 29.6906 2.92768 29.5615 2.92768C29.5615 2.41132 29.5615 2.02405 29.5615 1.5077C29.5615 1.37861 29.5615 1.24952 29.5615 1.12043C29.4324 1.24952 28.787 2.28223 28.787 2.41132C28.787 2.54041 28.6579 2.54041 28.6579 2.6695C28.5288 2.92768 28.1415 2.92768 28.1415 2.92768C28.0124 2.79859 28.0124 2.41132 28.0124 2.28223C28.0124 2.15314 28.0124 1.89496 28.0124 1.76587C28.0124 1.5077 27.7543 1.63679 27.7543 1.76587C27.6252 1.89496 27.367 2.92768 27.1088 3.31495C27.1088 3.18586 26.8506 2.6695 26.8506 2.15314C26.8506 2.02405 26.8506 1.5077 26.8506 1.37861C26.8506 1.24952 26.7216 1.37861 26.5925 1.37861C26.3343 1.63679 26.3343 2.02405 26.2052 2.28223C26.2052 2.41132 26.0761 2.54041 25.947 2.54041C25.8179 2.54041 25.6888 2.28223 25.6888 2.28223C25.5598 2.15314 25.5597 2.02405 25.4306 1.76587C25.4306 1.63679 25.3016 1.5077 25.1725 1.63679C25.0434 1.76588 25.0434 1.89496 24.9143 2.02405C24.9143 2.15314 24.7852 2.41132 24.7852 2.6695C24.7852 2.79859 24.6561 3.05677 24.6561 3.18586C24.6561 3.31495 24.527 3.57313 24.527 3.70222C24.3979 3.9604 24.2688 3.44404 24.1398 3.31495C24.0107 3.05677 24.0107 2.92768 24.0107 2.79859C24.0107 2.6695 23.8816 2.41132 23.7525 2.28223C23.6234 2.28223 23.6234 2.54041 23.4943 2.54041C23.4943 2.6695 23.3652 3.57313 23.3652 3.70222C23.3652 3.9604 23.3652 4.21858 23.2361 4.34767C23.2361 4.47676 23.107 4.60585 22.978 4.73494C22.8489 4.47676 22.8489 4.21858 22.8489 3.9604C22.8489 3.70222 22.7198 3.57313 22.7198 3.44404C22.7198 3.31495 22.5907 2.6695 22.4616 2.6695C22.3325 2.6695 22.2034 2.92768 22.2034 3.05677C22.2034 3.18586 22.2034 3.44404 22.2034 3.57313C22.2034 3.83131 22.2034 4.08949 22.2034 4.34767C22.2034 4.47676 22.2034 4.60585 22.2034 4.73494C22.2034 4.60585 21.8161 4.08949 21.6871 3.9604L21.4289 3.44404C21.4289 3.70222 21.2998 3.9604 21.2998 4.21858C21.2998 4.34767 21.2998 4.47676 21.2998 4.60585C21.2998 4.73494 21.2998 4.86403 21.2998 4.99311C21.2998 5.25129 21.2998 5.50947 21.2998 5.63856C21.1707 5.50947 20.7834 4.73494 20.7834 4.60585C20.3962 4.60585 20.2671 3.9604 20.138 3.9604C20.0089 4.08949 20.0089 4.21858 20.0089 4.34767C20.0089 4.60585 20.0089 4.73494 20.0089 4.99311C20.0089 5.38038 20.0089 6.54219 20.0089 6.54219C19.8798 6.4131 19.7507 6.28401 19.6216 6.02583C19.4925 5.89674 19.2344 5.63856 19.1053 5.50947C19.1053 5.50947 19.1053 5.76765 19.1053 5.89674C19.1053 6.02583 19.1053 6.15492 19.1053 6.28401C19.1053 6.4131 19.1053 6.54219 19.1053 6.67128C19.1053 6.80037 19.1053 6.92946 19.2344 7.05855C19.1053 6.92946 18.8471 6.67128 18.718 6.67128C18.5889 6.54219 18.2016 6.15492 18.0725 6.15492C18.0725 6.28401 18.2016 6.92946 18.2016 6.92946C18.3307 7.18764 18.3307 7.44582 18.3307 7.704C18.3307 7.83309 18.3307 8.09127 18.3307 8.22036C18.3307 8.22036 17.8144 7.83309 17.8144 7.704C17.6853 7.57491 17.4271 7.31673 17.1689 7.18764C17.1689 7.31673 17.1689 7.57491 17.1689 7.704C17.1689 7.96218 17.298 8.8658 17.298 9.12398C17.298 9.25307 17.298 9.38216 17.4271 9.51125C17.4271 9.51125 17.0398 9.12398 17.0398 8.99489C16.9107 8.8658 16.6526 8.47853 16.3944 8.34945C16.3944 8.34945 16.6526 8.99489 16.6526 9.12398C16.7817 9.38216 16.7816 9.76943 16.7816 9.89852C16.6526 9.76943 16.6526 9.76943 16.5235 9.76943C16.3944 9.76943 16.2653 9.64034 16.1362 9.64034C16.0071 9.64034 16.0071 9.64034 15.878 9.51125C15.7489 9.51125 15.7489 9.38216 15.6199 9.38216C15.6199 9.51125 15.7489 9.64034 15.7489 9.76943C15.7489 9.89852 15.7489 10.0276 15.878 10.1567C15.878 10.4149 16.0071 10.4149 16.0071 10.6731C16.0071 10.8021 16.2653 11.0603 16.2653 11.0603C16.1362 11.0603 15.7489 10.8021 15.7489 10.8021C15.4907 10.6731 15.1035 10.544 15.1035 10.544C15.2326 10.8021 15.3617 11.0603 15.3617 11.4476C15.3617 11.7058 15.4908 11.964 15.4908 12.3512C15.1035 12.093 15.1035 12.093 14.8453 11.964C14.458 11.7058 14.329 11.7058 14.0708 11.5767C14.0708 11.8349 14.0708 12.093 14.1999 12.3512C14.1999 12.6094 14.3289 12.8676 14.458 12.9967C14.458 13.1258 14.5871 13.1258 14.5871 13.2548C14.458 13.2548 14.0708 13.1258 13.9417 12.9967C13.8126 12.8676 13.6835 12.8676 13.4253 12.7385C13.4253 12.9967 13.5544 13.2548 13.6835 13.513C13.8126 13.7712 13.8126 13.9003 13.9417 14.1585C13.9417 14.2876 14.0708 14.2876 14.0708 14.5457C13.8126 14.2876 13.4253 14.1585 13.2962 14.1585C13.0381 14.0294 12.909 13.9003 12.7799 13.7712C12.7799 14.0294 12.909 14.4167 13.0381 14.6748C13.1671 14.933 13.1672 15.0621 13.4253 15.1912C13.1672 15.1912 13.0381 15.0621 12.7799 15.0621C12.6508 15.0621 12.3926 14.933 12.2635 14.8039C12.2635 14.933 12.2635 15.0621 12.2635 15.1912C12.2635 15.3203 12.3926 15.4494 12.3926 15.7076C12.5217 15.9657 12.6508 16.2239 12.7799 16.4821C12.5217 16.353 12.3926 16.2239 12.2635 16.0948C12.1344 15.9657 11.8763 15.8366 11.7472 15.8366C11.7472 15.8366 11.8762 16.7403 12.1344 17.2566C11.8762 16.9984 11.489 16.8694 11.2308 16.7403C11.2308 16.9984 11.489 17.2566 11.6181 17.6439C11.7472 17.9021 11.8762 18.1603 12.0053 18.2893C11.6181 18.1603 11.2308 17.9021 10.9726 17.773C11.1017 18.0312 11.6181 18.4184 11.7472 18.6766C11.1017 18.9348 11.1017 18.8057 10.1981 19.4512C9.9399 19.7093 9.68172 19.9675 9.42354 20.2257C9.03628 20.3548 8.77809 20.4839 8.39082 20.4839C7.74538 20.4839 6.97084 19.9675 6.45448 19.5802C5.80903 18.9348 5.0345 18.4184 4.38905 17.9021C3.7436 17.5148 3.48542 17.1275 2.96906 16.6112C2.71089 16.2239 2.32361 15.7076 1.93634 15.4494C1.80725 15.3203 1.67817 15.3203 1.67817 15.3203C1.80726 15.5785 1.93635 15.8366 2.06544 16.0948C1.93635 15.9657 1.54908 15.7076 1.2909 15.7076C1.2909 15.9657 1.54908 16.353 1.67817 16.4821C1.80726 16.6112 1.93635 16.8694 2.06544 16.9984C1.80726 16.8694 1.41999 16.6112 1.03272 16.6112C1.16181 16.7403 1.41999 16.8694 1.54908 16.9984C1.80726 17.2566 2.71088 18.6766 3.09815 19.0639C3.48542 19.4512 3.7436 19.7093 4.13087 20.3548C4.25996 20.613 4.64723 21.2584 5.0345 21.7748C5.55086 22.4202 6.1963 23.0657 6.32539 23.582C6.45448 23.9693 6.58358 24.0984 6.71267 24.4856C6.84175 24.8729 7.09994 25.6475 7.22903 26.422C7.22903 26.6802 7.22903 26.9383 7.22903 27.1965C7.22903 27.5838 7.22903 27.842 7.22903 28.2292C7.22903 28.4874 7.22903 29.262 7.22903 29.7783C7.22903 30.0365 7.22903 31.5856 7.22903 32.1019C7.22903 32.6183 7.22903 33.1347 7.22903 33.651C7.22903 34.5546 7.22902 35.3292 7.09993 36.2328C6.97084 37.0073 7.09993 37.0073 6.71267 37.7819C6.58358 38.1691 6.19631 38.4273 5.93813 38.6855C5.67995 38.9437 4.90541 39.5891 4.64723 39.8473C4.00179 40.3637 3.35633 41.0091 2.58179 41.3964C2.19452 41.5255 1.93635 41.7837 1.54908 41.9127C1.03272 42.0418 0.516358 42.1709 0 42.3C0.258179 42.3 0.387269 42.4291 0.645448 42.5582C0.516358 42.6873 0.12909 42.8164 0 42.9455C0.258179 42.9455 0.645454 42.9455 0.903633 42.9455C0.645454 43.0745 0.387273 43.4618 0.387273 43.72C0.903631 43.5909 1.41999 43.3327 1.93634 43.2036C2.83997 43.0746 3.61451 42.5582 4.51814 42.3C4.90541 42.1709 5.42176 42.0418 5.80903 41.9127C6.1963 41.7837 6.45448 41.5255 6.84175 41.3964C6.84175 41.5255 6.84175 41.7837 6.84175 41.9127C6.84175 43.2036 6.97084 44.6236 7.4872 45.7854C7.74538 46.3018 8.00356 46.9472 8.26174 47.4636C8.51992 48.109 8.64901 48.7545 8.90718 49.2708C9.68172 51.2072 11.1017 48.7545 11.6181 48.109C11.8762 47.7218 12.2635 47.3345 12.3926 46.9472C12.2635 47.0763 12.2635 47.2054 12.2635 47.2054C12.6508 47.3345 13.1672 47.3345 13.4253 46.9472C13.6835 46.4309 13.0381 45.7854 12.7799 45.7854C12.7799 45.7854 12.7799 45.7854 12.7799 45.9145C12.7799 45.5272 12.909 45.14 12.909 44.7527C13.0381 44.2364 12.909 43.72 13.0381 43.2036C13.1671 42.3 13.5544 41.1382 13.6835 40.2346C13.9417 40.3637 14.0708 40.88 14.329 41.0091C14.458 41.1382 14.5871 41.3964 14.5871 41.6546C14.8453 42.0418 14.8453 42.4291 15.1035 42.8164C15.2326 43.2036 15.3617 43.4618 15.4908 43.8491C15.6198 44.2364 15.7489 44.6236 16.0071 44.8818C16.1362 45.14 16.5235 45.7854 16.6526 46.1727C16.6526 45.7854 16.6526 45.3982 16.6526 45.0109C16.9107 45.2691 17.0398 45.6563 17.298 45.9145C17.298 45.5272 17.0398 44.8818 17.1689 44.6236C17.298 44.7527 17.8144 45.2691 17.8144 45.3982C17.8144 45.14 17.8144 44.8818 17.8144 44.6236C17.6853 44.3654 17.5562 44.1073 17.5562 43.8491C17.1689 42.8164 16.7817 41.9127 16.2653 41.0091C16.0071 40.4928 15.7489 39.9764 15.4908 39.46C15.3617 39.2019 15.2326 39.0728 15.1035 38.8146C14.9744 38.5564 14.9744 38.2982 14.8453 38.0401C14.8453 37.6528 14.9744 37.2655 14.9744 36.8783C14.9744 36.491 14.9744 36.1037 14.9744 35.7164C14.9744 34.8128 15.2326 33.1347 15.3617 32.3601C15.4908 30.5529 15.3617 29.9074 15.6199 28.2292C15.6199 27.7129 15.7489 27.1965 15.7489 26.8093C15.878 26.2929 15.878 25.7765 15.878 25.2602C15.878 25.002 15.878 24.8729 16.0071 24.6147C16.0071 24.3566 16.2653 24.2275 16.3944 24.0984C16.5235 23.9693 16.6526 23.9693 16.6526 23.8402C16.9107 23.582 17.0398 23.3238 17.298 23.0657C17.5562 22.6784 17.9435 22.5493 18.3307 22.162C18.5889 21.9039 18.8471 21.7748 19.1053 21.5166C19.3634 21.3875 19.6216 21.1293 19.8798 21.0002C20.138 20.8711 20.3962 20.742 20.5253 20.613C20.7834 20.4839 20.7834 20.0966 21.0416 19.8384C21.2998 19.5802 21.558 19.4512 21.8162 19.3221C22.0743 19.0639 22.4616 18.8057 22.7198 18.5475C22.978 18.2893 23.3652 17.9021 23.6234 17.5148C23.2361 17.6439 22.8489 17.6439 22.5907 17.773C22.7198 17.3857 23.107 17.1275 23.2361 16.8694C22.9779 16.9984 22.7198 16.9984 22.4616 17.1275C22.4616 16.8694 22.8489 16.4821 22.8489 16.353C22.3325 16.6112 22.0743 16.9984 21.6871 17.3857C21.2998 17.773 20.7834 18.1603 20.3962 18.4184C19.8798 18.8057 19.2344 19.0639 18.718 19.3221C18.4598 19.4512 18.2016 19.5802 17.9435 19.7093C17.6853 19.8384 17.4271 19.8384 17.1689 19.9675C16.9107 20.0966 16.5235 20.2257 16.1362 20.2257C15.7489 20.2257 15.3617 20.3548 15.1035 20.2257C15.1035 20.2257 15.3617 19.7093 15.6199 19.5802C15.7489 19.4512 16.1362 19.193 16.2653 19.0639C16.2653 18.8057 16.0071 18.8057 15.878 18.5475C16.1362 18.5475 16.3944 18.5475 16.6526 18.5475C16.6526 18.2893 16.6526 18.0312 16.6526 17.773C16.6526 17.5148 17.0398 17.5148 17.1689 17.5148C17.1689 17.2566 17.1689 16.8694 17.0398 16.6112C17.298 16.7403 17.6853 16.9984 17.8144 16.8694C17.8144 16.6112 17.8144 16.353 17.8144 16.0948C17.8144 15.9657 17.8144 15.7076 17.8144 15.5785C17.9435 15.7076 18.0726 15.8366 18.2016 15.9657C18.3307 16.0948 18.3307 16.2239 18.4598 16.353C18.4598 16.0948 18.4598 15.7076 18.4598 15.4494C18.4598 15.1912 18.3307 14.933 18.3307 14.6748C18.4598 14.8039 18.5889 14.933 18.718 15.0621C18.8471 15.1912 18.8471 15.3203 18.9762 15.4494C18.9762 15.1912 18.9762 14.933 18.9762 14.6748C18.9762 14.4167 18.9762 14.0294 18.8471 13.9003C19.1053 14.1585 19.2344 14.4167 19.4925 14.6748C19.4925 14.1585 19.6216 13.513 19.3634 12.9967C19.4925 13.1258 19.8798 13.3839 20.0089 13.513C20.138 13.2548 20.0089 12.7385 20.0089 12.3512C20.0089 12.093 20.0089 11.8349 20.138 11.5767C20.2671 11.8349 20.6543 12.093 20.7834 12.2221C20.7834 11.964 20.9125 11.7058 20.9125 11.4476C20.9125 11.1894 21.0416 10.8021 21.1707 10.544C21.2998 10.8021 21.4289 10.9312 21.558 11.1894C21.687 11.3185 21.6871 11.5767 21.8162 11.7058C21.9452 11.5767 22.0743 11.3185 22.2034 11.0603C22.3325 10.9312 22.3325 10.6731 22.4616 10.544C22.4616 10.8021 22.4616 11.0603 22.4616 11.1894C22.4616 11.4476 22.3325 11.7058 22.4616 11.8349C22.7198 11.5767 22.8489 11.1894 22.978 11.0603C23.2361 10.8021 23.3652 10.544 23.6234 10.544C23.6234 10.8021 23.6234 11.1894 23.6234 11.4476C23.7525 11.4476 24.3979 10.6731 24.527 10.6731C24.6561 10.544 24.7852 10.4149 24.9143 10.4149C24.9143 10.6731 24.9143 11.5767 24.9143 11.5767C25.0434 11.4476 25.1725 11.3185 25.3016 11.1894C25.4307 11.0603 25.4307 11.0603 25.5597 10.9312C25.5597 10.8021 25.6888 10.6731 25.8179 10.6731C25.8179 11.0603 25.8179 11.4476 25.8179 11.8349C26.0761 11.5767 26.3343 11.4476 26.4634 11.1894C26.7215 10.9312 27.1088 10.6731 27.367 10.544C27.367 10.8021 27.367 11.1894 27.367 11.4476C27.6252 11.4476 27.7543 11.0603 28.0124 10.9312C28.2706 10.6731 28.5288 10.544 28.787 10.4149C28.787 10.544 28.787 10.8021 28.787 11.0603C28.787 11.1894 28.787 11.4476 28.787 11.5767C28.787 11.7058 28.9161 11.8349 29.0452 11.7058C29.1743 11.5767 29.3033 11.4476 29.3033 11.1894C29.4324 11.0603 29.8197 10.4149 29.9488 10.2858C30.0779 10.4149 30.0779 10.544 30.0779 10.8021C30.0779 10.9312 30.207 11.1894 30.4652 11.1894C30.5942 11.1894 30.7233 10.9312 30.8524 10.8021C30.9815 10.6731 31.1106 10.4149 31.1106 10.1567C31.1106 10.0276 31.2397 9.89852 31.3688 9.76943C31.4979 9.76943 31.4979 10.1567 31.4979 10.1567C31.4979 10.4149 31.627 10.544 31.627 10.8021C31.627 10.9312 31.627 11.0603 31.7561 11.1894C31.8851 11.3185 32.0142 11.1894 32.1433 11.0603C32.2724 10.9312 32.4015 10.8021 32.5306 10.6731C32.6597 10.544 32.7888 10.2858 32.9179 10.4149C33.0469 10.4149 33.0469 10.8021 33.0469 10.9312C33.0469 11.0603 33.0469 11.1894 33.0469 11.3185C33.0469 11.4476 33.0469 11.7058 33.0469 11.8349C33.0469 11.964 33.0469 12.093 33.176 12.093C33.3051 12.093 33.4342 11.964 33.4342 11.964C33.5633 11.8349 33.5633 11.8349 33.6924 11.7058C33.8215 11.4476 34.3378 11.1894 34.3378 11.1894C34.3378 11.3185 34.2087 11.4476 34.2087 11.7058C34.2087 11.8349 34.2088 11.964 34.3378 12.093C34.4669 12.2221 34.8542 11.8349 34.9833 11.5767C35.1124 11.4476 35.2415 11.3185 35.3706 11.0603C35.4997 11.1894 35.6287 11.4476 35.7578 11.7058C35.8869 11.8349 36.016 12.093 36.1451 12.2221C36.2742 12.3512 36.4033 12.6094 36.5324 12.3512C36.6615 12.093 36.5324 11.8349 36.5324 11.5767C36.5324 11.3185 36.5324 11.0603 36.5324 10.8021C36.6615 11.0603 36.7905 11.3185 36.9196 11.5767C37.0487 11.8349 37.0487 11.964 37.3069 12.093C37.436 12.093 37.5651 12.2221 37.6942 12.2221C37.6942 11.964 37.5651 11.5767 37.5651 11.3185C37.436 11.0603 37.436 10.8021 37.436 10.544C37.5651 10.6731 37.5651 10.8021 37.6942 10.8021C37.8232 10.9312 37.8233 10.9312 37.9524 11.0603C38.0814 11.1894 38.0814 11.1894 38.2105 11.1894C38.3396 11.1894 38.4687 11.3185 38.5978 11.3185C38.7269 11.3185 38.856 11.3185 38.9851 11.3185C38.9851 11.3185 38.9851 11.1894 38.856 11.1894C38.856 11.0603 38.7269 11.0603 38.5978 10.9312C38.3396 10.8021 38.2105 10.544 38.0814 10.2858C38.0814 10.2858 37.9524 10.1567 37.9524 10.0276C38.3396 10.1567 38.7269 10.2858 39.1142 10.2858C39.2432 10.2858 39.5014 10.2858 39.5014 10.1567C39.3723 9.89852 39.2433 9.89852 39.2433 9.76943ZM12.6508 46.1727C12.6508 46.3018 12.5217 46.4309 12.5217 46.4309C12.5217 46.4309 12.5217 46.3018 12.6508 46.1727ZM12.6508 46.0436C12.6508 45.9145 12.6508 45.9145 12.7799 45.7854C12.7799 45.7854 12.6508 45.9145 12.6508 46.0436ZM36.7905 4.86403C36.9196 4.86403 37.0487 4.73494 37.1778 4.73494C37.0487 4.86403 36.9196 4.86403 36.7905 4.86403ZM37.1778 4.73494C37.3069 4.73494 37.3069 4.60585 37.436 4.60585C37.436 4.60585 37.436 4.60585 37.3069 4.60585C37.3069 4.73494 37.3069 4.73494 37.1778 4.73494ZM37.8233 4.34767C37.6942 4.47676 37.6942 4.47676 37.5651 4.60585C37.6942 4.47676 37.8233 4.34767 37.8233 4.34767C37.8233 4.21858 37.8233 4.34767 37.8233 4.34767Z" fill="black"/>
<path d="M26.0767 40.232C26.2058 40.3611 26.3349 40.4902 26.464 40.4902C26.7222 40.6193 26.9803 40.8775 27.2385 41.0066C26.8513 41.0066 26.3349 41.0066 25.9476 41.0066C25.8185 41.0066 25.6895 41.0066 25.6895 41.0066C25.6895 41.0066 25.8185 41.1357 25.9476 41.1357C26.0767 41.1357 26.0767 41.2647 26.2058 41.2647C26.3349 41.3938 26.5931 41.3938 26.7222 41.3938C26.8512 41.3938 26.9803 41.5229 27.1094 41.5229C26.9803 41.5229 26.7222 41.5229 26.7222 41.652C26.5931 41.652 26.464 41.7811 26.3349 41.7811C26.2058 41.9102 26.0767 41.9102 25.9476 42.0393C25.8185 42.1684 25.8185 42.2975 25.8185 42.4265C25.8185 42.5556 25.9476 42.5556 26.0767 42.5556C26.3349 42.6847 26.464 42.5556 26.7222 42.5556C26.8512 42.5556 26.9803 42.5556 27.1094 42.5556C26.9803 42.5556 26.5931 42.8138 26.464 42.9429C26.3349 43.072 26.3349 43.072 26.2058 43.2011C26.2058 43.3302 26.0767 43.4593 26.0767 43.5884C26.0767 43.7174 26.0767 43.8465 26.0767 43.9756C26.2058 43.9756 26.464 43.7174 26.5931 43.5884C26.8513 43.4593 26.9803 43.3302 27.2385 43.2011C27.2385 43.3302 26.9803 43.5884 26.9803 43.7174C26.9803 43.8465 26.8513 43.9756 26.8513 44.1047C26.7222 44.2338 26.7222 44.3629 26.7222 44.492C26.7222 44.6211 26.5931 44.6211 26.5931 44.7502L26.464 45.0083C26.5931 45.0083 26.5931 44.8792 26.7222 44.8792C26.8512 44.7502 26.9803 44.7502 26.9803 44.6211L27.1094 44.492C27.1094 44.6211 26.9803 44.7502 26.9803 44.8792C26.8513 45.0083 26.8513 45.1374 26.8513 45.2665C26.8513 45.3956 26.7222 45.3956 26.7222 45.5247C26.7222 45.6538 26.5931 45.7829 26.5931 45.912C26.5931 46.0411 26.464 46.1701 26.464 46.4283C26.464 46.5574 26.3349 46.8156 26.464 46.9447C26.464 46.8156 26.5931 46.8156 26.7222 46.8156C26.8512 46.8156 26.8513 46.6865 26.9803 46.5574C27.1094 46.4283 27.2385 46.1701 27.3676 46.0411C27.3676 45.912 27.4967 45.912 27.4967 45.7829C27.4967 45.7829 27.4967 45.7829 27.4967 45.6538C27.3676 45.7829 27.3676 45.912 27.2385 46.0411C27.2385 46.1701 27.1094 46.2992 27.1094 46.4283C27.1094 46.5574 26.9803 46.6865 26.9803 46.9447C26.9803 47.0738 26.9803 47.2029 27.1094 47.2029C27.2385 47.2029 27.3676 47.2029 27.4967 47.0738C27.884 46.9447 28.0131 46.8156 28.2712 46.5574L28.4003 46.2992C28.4003 46.4283 28.4003 46.6865 28.4003 47.0738C28.4003 47.332 28.4003 47.5901 28.2712 47.8483V47.9774C28.2712 48.1065 28.2712 48.2356 28.2712 48.3647V48.4938H28.4003C28.4003 48.4938 28.5294 48.3647 28.5294 48.2356C28.5294 48.1065 28.6585 47.8483 28.7876 47.8483C28.7876 47.8483 29.0458 47.332 29.1749 47.2029C29.1749 47.2029 29.1749 47.461 29.1749 47.5901C29.1749 47.7192 29.1749 47.8483 29.1749 47.9774C29.1749 48.2356 29.1749 48.2356 29.1749 48.4938C29.1749 48.6228 29.1749 49.0101 29.1749 49.0101C29.304 48.881 29.433 48.7519 29.433 48.7519C29.5621 48.6228 29.6912 48.4938 29.6912 48.3647C29.6912 48.2356 29.8203 48.1065 29.8203 47.9774C29.8203 47.8483 29.8203 47.7192 29.9494 47.7192C30.0785 47.7192 30.0785 48.1065 30.2076 48.2356C30.2076 48.3647 30.2076 48.4938 30.2076 48.6228V48.881C30.2076 49.0101 30.4658 48.6228 30.5948 48.6228C30.5948 48.4938 30.7239 48.3647 30.853 48.2356C30.9821 48.1065 30.9821 47.9774 30.9821 47.8483C30.9821 47.7192 31.1112 47.7192 31.1112 47.5901C31.1112 47.461 31.2403 47.332 31.2403 47.332C31.3694 47.2029 31.3694 47.5901 31.4985 47.7192C31.4985 47.8483 31.4985 47.9774 31.4985 48.1065C31.4985 48.4938 31.4985 48.881 31.6276 49.1392C31.6276 49.2683 31.7566 49.1392 31.8857 49.0101C32.0148 48.881 32.0148 48.6229 32.273 48.3647C32.4021 48.2356 32.5312 47.9774 32.6603 47.8483C32.7894 47.7192 32.7894 47.5901 32.7894 47.7192C32.9185 47.8483 32.9185 48.2356 32.9185 48.3647C32.9185 48.4938 33.0476 49.0101 33.0476 49.0101C33.1766 48.881 33.3057 48.6229 33.4348 48.3647C33.5639 48.1065 33.693 47.8483 33.8221 47.5901C33.9512 47.461 34.2094 47.0738 34.3385 47.2029C34.4675 47.332 34.4675 47.461 34.4675 47.5901C34.4675 47.7192 34.4675 47.8483 34.4675 47.9774C34.4675 48.2356 34.4675 48.4938 34.4675 48.7519C34.7257 48.6228 34.9839 48.3647 35.113 47.9774C35.2421 47.8483 35.2421 47.7192 35.3712 47.5901C35.3712 47.461 35.7584 46.9447 35.8875 46.9447C35.8875 47.461 35.8875 47.8483 35.8875 48.3647C35.8875 48.4938 35.8875 48.6228 35.8875 48.7519C36.0166 48.6228 36.6621 47.5901 36.6621 47.461C36.6621 47.332 36.7911 47.332 36.7911 47.2029C36.9202 46.9447 37.3075 46.9447 37.3075 46.9447C37.4366 47.0738 37.4366 47.461 37.4366 47.5901C37.4366 47.7192 37.4366 47.9774 37.4366 48.1065C37.4366 48.3647 37.6948 48.2356 37.6948 48.1065C37.8239 47.9774 38.082 46.9447 38.3402 46.5574C38.3402 46.6865 38.5984 47.2029 38.5984 47.7192C38.5984 47.8483 38.5984 48.3647 38.5984 48.4938C38.5984 48.6228 38.7275 48.4938 38.8566 48.4938C39.1148 48.2356 39.1148 47.8483 39.2439 47.5901C39.2439 47.461 39.3729 47.332 39.502 47.332C39.6311 47.332 39.7602 47.5901 39.7602 47.5901C39.8893 47.7192 39.8893 47.8483 40.0184 48.1065C40.0184 48.2356 40.1475 48.3647 40.2766 48.2356C40.4057 48.1065 40.4057 47.9774 40.5348 47.8483C40.5348 47.7192 40.6638 47.461 40.6638 47.2029C40.6638 47.0738 40.7929 46.8156 40.7929 46.6865C40.7929 46.5574 40.922 46.2992 40.922 46.1701C41.0511 45.912 41.1802 46.4283 41.3093 46.5574C41.4384 46.8156 41.4384 46.9447 41.4384 47.0738C41.4384 47.2029 41.5675 47.461 41.6966 47.5901C41.8256 47.5901 41.8256 47.332 41.9547 47.332C41.9547 47.2029 42.0838 46.2992 42.0838 46.1701C42.0838 45.912 42.0838 45.6538 42.2129 45.5247C42.2129 45.3956 42.342 45.2665 42.4711 45.1374C42.6002 45.3956 42.6002 45.6538 42.6002 45.912C42.6002 46.1701 42.7293 46.2992 42.7293 46.4283C42.7293 46.5574 42.8584 47.2029 42.9875 47.2029C43.1165 47.2029 43.2456 46.9447 43.2456 46.8156C43.2456 46.6865 43.2456 46.4283 43.2456 46.2992C43.2456 46.0411 43.2456 45.7829 43.2456 45.5247C43.2456 45.3956 43.2456 45.2665 43.2456 45.1374C43.2456 45.2665 43.6329 45.7829 43.762 45.912L44.0202 46.4283C44.0202 46.1701 44.1493 45.912 44.1493 45.6538C44.1493 45.5247 44.1493 45.3956 44.1493 45.2665C44.1493 45.1374 44.1493 45.0083 44.1493 44.8792C44.1493 44.6211 44.1493 44.3629 44.1493 44.2338C44.2783 44.3629 44.6656 45.1374 44.6656 45.2665C44.7947 45.3956 44.9238 46.0411 45.0529 46.0411C45.182 45.912 45.182 45.7829 45.182 45.6538C45.182 45.3956 45.182 45.2665 45.182 45.0083C45.182 44.6211 45.182 43.4593 45.182 43.4593C45.3111 43.5884 45.4402 43.7174 45.5692 43.9756C45.6983 44.1047 45.9565 44.3629 46.0856 44.492C46.0856 44.492 46.0856 44.2338 46.0856 44.1047C46.0856 43.9756 46.0856 43.8465 46.0856 43.7174C46.0856 43.5884 46.0856 43.4593 46.0856 43.3302C46.0856 43.2011 46.0856 43.072 45.9565 42.9429C46.0856 43.072 46.3438 43.3302 46.4729 43.3302C46.602 43.4593 46.9892 43.8465 47.1183 43.8465C47.1183 43.7174 46.9892 43.072 46.9892 43.072C46.8601 42.8138 46.8601 42.5556 46.8601 42.2975C46.8601 42.1684 46.8601 41.9102 46.8601 41.7811C46.8601 41.7811 47.3765 42.1684 47.3765 42.2975C47.5056 42.4265 47.7638 42.6847 48.0219 42.8138C48.0219 42.6847 48.0219 42.4265 48.0219 42.2975C48.0219 42.0393 47.8929 41.1357 47.8929 40.8775C47.8929 40.7484 47.8929 40.6193 47.7638 40.4902C47.7638 40.4902 48.151 40.8775 48.151 41.0066C48.2801 41.1357 48.5383 41.5229 48.7965 41.652C48.7965 41.652 48.5383 41.0066 48.5383 40.8775C48.4092 40.6193 48.4092 40.232 48.4092 40.1029C48.5383 40.232 48.5383 40.232 48.6674 40.232C48.7965 40.232 48.9256 40.3611 49.0547 40.3611C49.1838 40.3611 49.1837 40.3611 49.3128 40.4902C49.4419 40.4902 49.4419 40.6193 49.571 40.6193C49.571 40.4902 49.4419 40.3611 49.4419 40.232C49.4419 40.1029 49.4419 39.9738 49.3128 39.8448C49.3128 39.5866 49.1838 39.5866 49.1838 39.3284C49.1838 39.1993 48.9256 38.9411 48.9256 38.9411C49.0547 38.9411 49.4419 39.1993 49.4419 39.1993C49.7001 39.3284 50.0874 39.4575 50.0874 39.4575C49.9583 39.1993 49.8292 38.9411 49.8292 38.5539C49.8292 38.2957 49.7001 38.0375 49.7001 37.6502C50.0874 37.9084 50.0874 37.9084 50.3456 38.0375C50.7328 38.2957 50.8619 38.2957 51.1201 38.4248C51.1201 38.1666 51.1201 37.9084 50.991 37.6502C50.991 37.3921 50.8619 37.1339 50.7328 37.0048C50.7328 36.8757 50.6037 36.8757 50.6037 36.7466C50.7328 36.7466 51.1201 36.8757 51.2492 37.0048C51.3783 37.1339 51.5074 37.1339 51.7655 37.263C51.7655 37.0048 51.6365 36.7466 51.5074 36.4884C51.3783 36.2302 51.3783 36.1012 51.2492 35.843C51.2492 35.7139 51.1201 35.7139 51.1201 35.4557C51.3783 35.7139 51.7655 35.843 51.8946 35.843C52.1528 35.9721 52.2819 36.1012 52.411 36.2302C52.411 35.9721 52.2819 35.5848 52.1528 35.3266C52.0237 35.0684 52.0237 34.9394 51.7655 34.8103C52.0237 34.8103 52.1528 34.9394 52.411 34.9394C52.5401 34.9394 52.7983 35.0684 52.9273 35.1975C52.9273 35.0684 52.9273 34.9394 52.9273 34.8103C52.9273 34.6812 52.7983 34.5521 52.7983 34.2939C52.6692 34.0357 52.5401 33.7775 52.411 33.5194C52.6692 33.6485 52.7983 33.7775 52.9273 33.9066C53.0564 34.0357 53.3146 34.1648 53.4437 34.1648C53.4437 34.1648 53.3146 33.2612 53.0564 32.7448C53.3146 33.003 53.7019 33.1321 53.9601 33.2612C53.9601 33.003 53.7019 32.7448 53.5728 32.3576C53.4437 32.0994 53.3146 31.8412 53.1855 31.7121C53.5728 31.8412 53.9601 32.0994 54.2182 32.2285C54.0892 31.9703 53.5728 31.583 53.4437 31.3248C54.0892 31.0667 54.0892 31.1958 54.9928 30.5503C55.251 30.2921 55.5091 30.0339 55.7673 29.7758C56.1546 29.6467 56.4128 29.5176 56.8 29.5176C57.4455 29.5176 58.22 30.0339 58.7364 30.4212C59.3818 31.0667 60.1564 31.583 60.8018 32.0994C61.4473 32.4866 61.7054 32.8739 62.2218 33.3903C62.48 33.7775 62.8672 34.2939 63.2545 34.5521C63.3836 34.6812 63.5127 34.6812 63.5127 34.6812C63.3836 34.423 63.2545 34.1648 63.1254 33.9066C63.2545 34.0357 63.6418 34.2939 63.9 34.2939C63.9 34.0357 63.6418 33.6485 63.5127 33.5194C63.3836 33.3903 63.2545 33.1321 63.1254 33.003C63.3836 33.1321 63.7709 33.3903 64.1581 33.3903C64.029 33.2612 63.7709 33.1321 63.6418 33.003C63.3836 32.7448 62.48 31.3248 62.0927 30.9376C61.7054 30.5503 61.4473 30.2921 61.06 29.6467C60.9309 29.3885 60.5436 28.743 60.1564 28.2267C59.64 27.5812 58.9946 26.9358 58.8655 26.4194C58.7364 26.0322 58.6073 25.9031 58.4782 25.5158C58.3491 25.1285 58.0909 24.354 57.9619 23.5795C57.9619 23.3213 57.9619 23.0631 57.9619 22.8049C57.9619 22.4177 57.9619 22.1595 57.9619 21.7722C57.9619 21.514 57.9619 20.7395 57.9619 20.2231C57.9619 19.965 57.9619 18.4159 57.9619 17.8995C57.9619 17.3832 57.9619 16.8668 57.9619 16.3504C57.9619 15.4468 57.9618 14.6723 58.0909 13.7687C58.22 12.9941 58.0909 12.9941 58.4782 12.2196C58.6073 11.8323 58.9946 11.5741 59.2528 11.316C59.5109 11.0578 60.2855 10.4123 60.5436 10.1541C61.1891 9.63779 61.8345 8.99234 62.6091 8.60507C62.9963 8.47598 63.2545 8.2178 63.6418 8.08871C64.1581 7.95962 64.6745 7.83053 65.1909 7.70144C64.9327 7.70144 64.8036 7.57235 64.5454 7.44326C64.6745 7.31418 65.0618 7.18509 65.1909 7.056C64.9327 7.056 64.5454 7.056 64.2872 7.056C64.5454 6.92691 64.8036 6.53964 64.8036 6.28146C64.2872 6.41055 63.7709 6.66873 63.2545 6.79782C62.3509 6.92691 61.5764 7.44326 60.6727 7.70144C60.2855 7.83053 59.7691 7.95962 59.3818 8.08871C58.9946 8.2178 58.7364 8.47598 58.3491 8.60507C58.3491 8.47598 58.3491 8.2178 58.3491 8.08871C58.3491 6.79782 58.22 5.37783 57.7037 4.21602C57.4455 3.69967 57.1873 3.05422 56.9291 2.53786C56.671 1.89241 56.5419 1.24696 56.2837 0.730605C55.5091 -1.20574 54.0892 1.24696 53.5728 1.89241C53.3146 2.27968 52.9274 2.66695 52.7983 3.05422C52.9274 2.92513 52.9273 2.79604 52.9273 2.79604C52.5401 2.66695 52.0237 2.66695 51.7655 3.05422C51.5074 3.57058 52.1528 4.21602 52.411 4.21602C52.411 4.21602 52.411 4.21602 52.411 4.08694C52.411 4.4742 52.2819 4.86147 52.2819 5.24874C52.1528 5.7651 52.2819 6.28146 52.1528 6.79782C52.0237 7.70144 51.6365 8.86325 51.5074 9.76688C51.2492 9.63779 51.1201 9.12143 50.8619 8.99234C50.7328 8.86325 50.6037 8.60507 50.6037 8.34689C50.3456 7.95962 50.3456 7.57235 50.0874 7.18509C49.9583 6.79782 49.8292 6.53964 49.7001 6.15237C49.571 5.7651 49.4419 5.37783 49.1838 5.11965C49.0547 4.86147 48.6674 4.21602 48.5383 3.82876C48.5383 4.21602 48.5383 4.60329 48.5383 4.99056C48.2801 4.73238 48.151 4.34511 47.8929 4.08694C47.8929 4.4742 48.151 5.11965 48.0219 5.37783C47.8928 5.24874 47.3765 4.73238 47.3765 4.60329C47.3765 4.86147 47.3765 5.11965 47.3765 5.37783C47.5056 5.63601 47.6347 5.89419 47.6347 6.15237C48.022 7.18509 48.4092 8.08871 48.9256 8.99234C49.1838 9.5087 49.4419 10.0251 49.7001 10.5414C49.8292 10.7996 49.9583 10.9287 50.0874 11.1869C50.2165 11.445 50.2165 11.7032 50.3456 11.9614C50.3456 12.3487 50.2165 12.7359 50.2165 13.1232C50.2165 13.5105 50.2165 13.8977 50.2165 14.285C50.2165 15.1886 49.9583 16.8668 49.8292 17.6413C49.7001 19.4486 49.8292 20.094 49.571 21.7722C49.571 22.2886 49.4419 22.8049 49.4419 23.1922C49.3128 23.7086 49.3128 24.2249 49.3128 24.7413C49.3128 24.9995 49.3128 25.1285 49.1838 25.3867C49.1838 25.6449 48.9256 25.774 48.7965 25.9031C48.6674 26.0322 48.5383 26.0322 48.5383 26.1613C48.2801 26.4194 48.151 26.6776 47.8929 26.9358C47.6347 27.3231 47.2474 27.4522 46.8601 27.8394C46.602 28.0976 46.3438 28.2267 46.0856 28.4849C45.8274 28.614 45.5692 28.8721 45.3111 29.0012C45.0529 29.1303 44.7947 29.2594 44.6656 29.3885C44.4074 29.5176 44.4074 29.9049 44.1493 30.163C43.8911 30.4212 43.6329 30.5503 43.3747 30.6794C43.1165 30.9376 42.7293 31.1958 42.4711 31.4539C42.2129 31.7121 41.8256 32.0994 41.5675 32.4866C41.9547 32.3576 42.342 32.3576 42.6002 32.2285C42.4711 32.6157 42.0838 32.8739 41.9547 33.1321C42.2129 33.003 42.4711 33.003 42.7293 32.8739C42.7293 33.1321 42.342 33.5194 42.342 33.6485C42.8584 33.3903 43.1165 33.003 43.5038 32.6157C43.8911 32.2285 44.4074 31.8412 44.7947 31.583C45.3111 31.1958 45.9565 30.9376 46.4729 30.6794C46.731 30.5503 46.9892 30.4212 47.2474 30.2921C47.5056 30.163 47.7638 30.163 48.0219 30.0339C48.2801 29.9049 48.6674 29.7758 49.0547 29.7758C49.4419 29.7758 49.8292 29.6467 50.0874 29.7758C50.0874 29.7758 49.8292 30.2921 49.571 30.4212C49.4419 30.5503 49.0547 30.8085 48.9256 30.9376C48.9256 31.1958 49.1837 31.1958 49.3128 31.4539C49.0547 31.4539 48.7965 31.4539 48.5383 31.4539C48.5383 31.7121 48.5383 31.9703 48.5383 32.2285C48.5383 32.4866 48.151 32.4866 48.0219 32.4866C48.0219 32.7448 48.0219 33.1321 48.151 33.3903C47.8929 33.2612 47.5056 33.003 47.3765 33.1321C47.3765 33.3903 47.3765 33.6485 47.3765 33.9066C47.3765 34.0357 47.3765 34.2939 47.3765 34.423C47.2474 34.2939 47.1183 34.1648 46.9892 34.0357C46.8601 33.9066 46.8601 33.7775 46.731 33.6485C46.731 33.9066 46.731 34.2939 46.731 34.5521C46.731 34.8103 46.8601 35.0684 46.8601 35.3266C46.7311 35.1975 46.602 35.0684 46.4729 34.9394C46.3438 34.8103 46.3438 34.6812 46.2147 34.5521C46.2147 34.8103 46.2147 35.0684 46.2147 35.3266C46.2147 35.5848 46.2147 35.9721 46.3438 36.1012C46.0856 35.843 45.9565 35.5848 45.6983 35.3266C45.6983 35.843 45.5692 36.4884 45.8274 37.0048C45.6983 36.8757 45.3111 36.6175 45.182 36.4884C45.0529 36.7466 45.182 37.263 45.182 37.6502C45.182 37.9084 45.182 38.1666 45.0529 38.4248C44.9238 38.1666 44.5365 37.9084 44.4074 37.7793C44.4074 38.0375 44.2783 38.2957 44.2783 38.5539C44.2783 38.812 44.1493 39.1993 44.0202 39.4575C43.8911 39.1993 43.762 39.0702 43.6329 38.812C43.5038 38.6829 43.5038 38.4248 43.3747 38.2957C43.2456 38.4248 43.1165 38.6829 42.9875 38.9411C42.8584 39.0702 42.8584 39.3284 42.7293 39.4575C42.7293 39.1993 42.7293 38.9411 42.7293 38.812C42.7293 38.5539 42.8584 38.2957 42.7293 38.1666C42.4711 38.4248 42.342 38.812 42.2129 38.9411C41.9547 39.1993 41.8256 39.4575 41.5675 39.4575C41.5675 39.1993 41.5675 38.812 41.5675 38.5539C41.4384 38.5539 40.7929 39.3284 40.6638 39.3284C40.5347 39.4575 40.4057 39.5866 40.2766 39.5866C40.2766 39.3284 40.2766 38.4248 40.2766 38.4248C40.1475 38.5539 40.0184 38.6829 39.8893 38.812C39.7602 38.9411 39.7602 38.9411 39.6311 39.0702C39.6311 39.1993 39.502 39.3284 39.3729 39.3284C39.3729 38.9411 39.3729 38.5539 39.3729 38.1666C39.1148 38.4248 38.8566 38.5539 38.7275 38.812C38.4693 39.0702 38.082 39.3284 37.8239 39.4575C37.8239 39.1993 37.8239 38.812 37.8239 38.5539C37.5657 38.5539 37.4366 38.9411 37.1784 39.0702C36.9202 39.3284 36.6621 39.4575 36.4039 39.5866C36.4039 39.4575 36.4039 39.1993 36.4039 38.9411C36.4039 38.812 36.4039 38.5539 36.4039 38.4248C36.4039 38.2957 36.2748 38.1666 36.1457 38.2957C36.0166 38.4248 35.8875 38.5539 35.8875 38.812C35.7584 38.9411 35.3712 39.5866 35.2421 39.7157C35.113 39.5866 35.113 39.4575 35.113 39.1993C35.113 39.0702 34.9839 38.812 34.7257 38.812C34.5966 38.812 34.4675 39.0702 34.3385 39.1993C34.2094 39.3284 34.0803 39.5866 34.0803 39.8448C34.0803 39.9738 33.9512 40.1029 33.8221 40.232C33.693 40.232 33.693 39.8448 33.693 39.8448C33.693 39.5866 33.5639 39.4575 33.5639 39.1993C33.5639 39.0702 33.5639 38.9411 33.4348 38.812C33.3057 38.6829 33.1766 38.812 33.0476 38.9411C32.9185 39.0702 32.7894 39.1993 32.6603 39.3284C32.5312 39.4575 32.4021 39.7157 32.273 39.5866C32.1439 39.5866 32.1439 39.1993 32.1439 39.0702C32.1439 38.9411 32.1439 38.812 32.1439 38.6829C32.1439 38.5539 32.1439 38.2957 32.1439 38.1666C32.1439 38.0375 32.1439 37.9084 32.0148 37.9084C31.8857 37.9084 31.7567 38.0375 31.7567 38.0375C31.6276 38.1666 31.6276 38.1666 31.4985 38.2957C31.3694 38.5539 30.853 38.812 30.853 38.812C30.853 38.6829 30.9821 38.5539 30.9821 38.2957C30.9821 38.1666 30.9821 38.0375 30.853 37.9084C30.7239 37.7793 30.3367 38.1666 30.2076 38.4248C30.0785 38.5539 29.9494 38.6829 29.8203 38.9411C29.6912 38.812 29.5621 38.5539 29.433 38.2957C29.304 38.1666 29.1749 37.9084 29.0458 37.7793C28.9167 37.6502 28.7876 37.3921 28.6585 37.6502C28.5294 37.9084 28.6585 38.1666 28.6585 38.4248C28.6585 38.6829 28.6585 38.9411 28.6585 39.1993C28.5294 38.9411 28.4003 38.6829 28.2712 38.4248C28.1422 38.1666 28.1422 38.0375 27.884 37.9084C27.7549 37.9084 27.6258 37.7793 27.4967 37.7793C27.4967 38.0375 27.6258 38.4248 27.6258 38.6829C27.7549 38.9411 27.7549 39.1993 27.7549 39.4575C27.6258 39.3284 27.6258 39.1993 27.4967 39.1993C27.3676 39.0702 27.3676 39.0702 27.2385 38.9411C27.1094 38.812 27.1094 38.812 26.9803 38.812C26.8513 38.812 26.7222 38.6829 26.5931 38.6829C26.464 38.6829 26.3349 38.6829 26.2058 38.6829C26.2058 38.6829 26.2058 38.812 26.3349 38.812C26.3349 38.9411 26.464 38.9411 26.5931 39.0702C26.8513 39.1993 26.9803 39.4575 27.1094 39.7157C27.1094 39.7157 27.2385 39.8448 27.2385 39.9738C26.8513 39.8448 26.464 39.7157 26.0767 39.7157C25.9476 39.7157 25.6895 39.7157 25.6895 39.8448C25.8185 40.1029 25.9476 40.1029 26.0767 40.232ZM52.6692 3.82876C52.6692 3.69967 52.7983 3.57058 52.7983 3.57058C52.6692 3.57058 52.6692 3.69967 52.6692 3.82876ZM52.5401 3.95785C52.5401 4.08694 52.5401 4.08694 52.411 4.21602C52.5401 4.21602 52.5401 4.08694 52.5401 3.95785ZM28.4003 45.1374C28.2712 45.1374 28.1421 45.2665 28.0131 45.2665C28.2712 45.1374 28.2712 45.1374 28.4003 45.1374ZM28.0131 45.2665C27.884 45.2665 27.884 45.3956 27.7549 45.3956C27.7549 45.3956 27.7549 45.3956 27.884 45.3956C27.884 45.2665 28.0131 45.2665 28.0131 45.2665ZM27.3676 45.6538C27.4967 45.5247 27.4967 45.5247 27.6258 45.3956C27.4967 45.5247 27.4967 45.6538 27.3676 45.6538C27.3676 45.7829 27.3676 45.6538 27.3676 45.6538Z" fill="black"/>
</svg>
