<svg width="67" height="50" viewBox="0 0 67 50" fill="none" xmlns="http://www.w3.org/2000/svg">
<path d="M52.8773 19.655C51.4224 16.7452 49.3061 14.0999 47.0576 12.116C45.735 10.9256 44.1478 9.7352 42.5606 8.80935C43.0897 8.54482 43.6188 8.28029 44.1478 7.88349C47.3222 6.29632 53.5386 4.84141 55.7871 10.661C57.3742 14.3644 54.729 17.2743 52.8773 19.655ZM9.89136 41.2141C6.84928 40.0237 5.79117 35.7913 6.58475 33.0137C7.11381 31.162 10.0236 26.5328 13.198 24.5488C13.198 24.5488 13.4625 24.4165 13.727 24.2843C13.9916 27.4586 14.5206 29.0458 14.7851 29.9716C15.9755 33.9396 17.695 37.7752 20.3403 40.685C16.9014 41.3464 12.2721 42.0077 9.89136 41.2141ZM63.1939 0.873486C58.8292 -1.50727 52.8773 1.53481 48.6448 3.38651C45.8673 4.57689 43.222 6.16406 40.5767 7.75123C39.6508 7.35444 38.8573 6.95764 38.0637 6.56085C33.4344 4.84142 28.0116 5.37047 23.25 7.35444C17.2982 9.86746 14.6529 17.142 13.9916 21.639C10.5527 23.8875 7.64288 26.665 5.39438 29.5748C4.204 31.162 2.74908 33.8073 2.22003 34.9977C0.76512 38.9656 -1.88015 44.7852 2.08777 47.8273C6.18797 51.0017 12.0076 50.4726 18.3563 47.695C20.737 46.6369 23.1178 45.7111 25.3663 44.653C26.6889 45.3143 28.1438 45.8433 29.8633 46.1079C33.9635 46.9015 41.8993 44.3884 46.1318 41.2141C48.248 39.6269 52.4805 35.659 53.5386 33.4105C54.5967 31.162 54.9935 28.9135 54.8612 26.665C58.8292 23.6229 62.268 20.1841 63.9875 16.3484C65.8392 12.3805 67.8231 3.25424 63.1939 0.873486Z" fill="black"/>
</svg>
