<svg width="35" height="50" viewBox="0 0 35 50" fill="none" xmlns="http://www.w3.org/2000/svg">
<path d="M33.7824 29.2607C33.0322 28.2603 34.9079 27.6351 34.4077 26.7598C34.2826 26.5097 34.1576 26.2596 34.2827 26.0095L34.4077 25.8845C34.5327 25.7594 34.5327 25.6344 34.5327 25.3843C34.5327 24.634 34.1576 23.8837 33.4073 23.5086C33.5324 22.5082 33.2822 21.5079 32.657 20.7576C33.1572 20.5075 33.4073 20.1324 33.4073 19.6322C33.2823 19.132 32.9072 18.5068 32.407 18.2567C32.7821 18.0066 32.9071 17.5064 32.7821 17.1313C32.657 16.7561 32.4069 16.1309 32.0318 16.0059C32.2819 15.5057 32.4069 14.8804 32.2819 14.2552C32.2819 14.0051 32.1568 13.755 31.9068 13.8801C32.4069 13.63 32.9071 13.2549 33.1572 12.7547C33.4073 12.2545 33.4073 11.6293 33.0322 11.2541C32.9072 11.1291 32.9071 11.1291 32.7821 11.004C32.657 10.7539 33.1572 10.5038 33.1572 10.1287C33.1572 9.62852 32.657 9.12834 32.532 8.87825C32.532 8.62816 32.9071 8.12798 32.7821 7.75284C32.657 7.50275 32.657 7.12761 32.532 6.87752C32.4069 6.62743 32.407 6.37733 32.407 6.12724C32.407 5.75211 32.4069 5.37697 32.2819 4.87678C32.1568 4.50165 31.9068 4.00146 31.9068 3.62633C31.9068 2.25082 31.6566 0.750275 31.0314 0.125046C30.4062 0.87532 30.2812 1.50055 29.9061 2.25082C29.5309 3.12614 29.1558 3.87642 28.6556 4.75174C28.4055 4.75174 28.0303 4.75174 27.7803 4.87678C27.6552 4.62669 27.5302 4.3766 27.155 4.50165C26.9049 4.62669 26.6548 4.87678 26.5298 5.00183C26.1547 4.62669 25.9046 4.3766 25.5295 4.50165C25.1543 4.50165 25.0293 4.75174 24.9042 5.12688C24.404 4.00146 23.9038 3.37624 23.4037 2.50092C22.9035 1.62559 21.9031 0.375137 21.7781 0C21.0278 1.00037 20.1524 2.37587 19.9024 2.62596C19.6523 2.87605 19.6523 3.12614 19.6523 3.12614C19.6523 3.25119 19.7773 3.25119 19.9024 3.37624C20.0274 3.50128 20.1525 3.62633 20.1525 3.75137C20.1525 3.87642 20.0274 4.00146 19.9024 4.00146C19.7773 4.00146 19.7773 4.12651 19.6523 4.12651C19.5272 4.25156 19.4022 4.50165 19.5272 4.75174C19.6523 5.00183 19.6523 5.00183 19.9024 5.12688C20.0274 5.25192 20.0274 5.25192 20.1525 5.37697C20.2775 5.62706 20.0274 5.87715 19.9024 6.0022C19.6523 6.12724 19.5272 6.37733 19.4022 6.62743C19.4022 6.87752 19.5272 7.12761 19.7773 7.25265C19.7773 7.3777 19.7773 7.3777 19.6523 7.3777C19.5272 7.50275 19.2771 7.50275 19.1521 7.75284C19.4022 8.00293 19.4022 8.25302 19.4022 8.37807C19.4022 8.50311 19.5272 8.50311 19.5272 8.62816C19.6523 8.7532 19.7773 9.00329 19.9024 9.25339C19.6523 9.50348 19.1521 9.37843 18.902 9.62852C18.777 9.75357 18.6519 9.87862 18.6519 10.1287C18.5269 10.5038 18.6519 10.879 18.902 11.2541C18.902 11.3792 19.0271 11.3792 19.0271 11.5042C19.0271 11.6293 18.902 11.7543 18.777 11.6293C17.6515 11.6293 17.1513 12.5046 17.2764 13.63C16.276 13.0048 15.5257 13.755 15.4007 14.5053C15.0256 14.1302 14.6505 13.63 14.0252 13.755C13.525 13.8801 13.525 14.6304 13.4 14.6304C13.1499 14.2552 12.6497 14.0051 12.1495 14.1302C11.6494 14.2552 11.2742 15.2556 11.0241 15.1305C10.774 14.7554 10.1488 14.7554 9.64862 14.8804C9.27349 15.1305 9.02338 15.6307 8.77329 16.0059C8.5232 15.6307 7.89798 16.0059 7.64788 16.381C7.39779 16.7561 7.77292 17.2563 7.52283 17.5064C7.02265 17.3814 6.39741 17.6315 6.14732 18.0066C5.77218 18.3817 5.89723 19.007 6.14732 19.5071C5.52209 19.3821 4.52175 20.0073 4.64679 20.7576C4.64679 21.1327 4.89688 21.6329 4.64679 21.883C4.52175 22.0081 4.39668 22.0081 4.27163 22.0081C3.6464 22.2581 3.39634 23.2585 4.02156 23.6336C3.52138 23.6336 2.64605 23.7587 2.521 24.0088C2.39595 24.509 2.77108 24.7591 3.02118 25.1342C2.89613 25.1342 2.7711 25.5093 2.64605 25.5093C1.89578 25.2592 1.27053 26.7598 2.39595 27.5101C1.02044 28.0103 0.270184 30.011 1.3956 31.0113C0.895413 31.0113 0.395207 31.6366 0.395207 32.1368C0.395207 32.6369 0.770359 33.0121 1.27054 33.1371C0.770359 33.5123 0.145131 34.2625 0.0200848 34.7627C-0.104961 35.388 0.520253 35.8881 1.02044 35.7631C1.14548 36.2633 0.270161 36.7635 0.395207 37.1386C0.395207 37.2636 0.52026 37.2636 0.52026 37.3887C0.895398 37.6388 1.27053 37.6388 1.77072 37.6388C1.14549 38.264 1.02046 38.8892 1.3956 39.6395C1.52064 39.8896 1.89579 40.0146 2.14588 40.0146C1.77074 40.3898 1.52065 40.7649 1.52065 41.2651C1.52065 41.7653 1.89576 42.2655 2.39595 42.2655C1.89576 42.5156 1.52062 43.1408 1.64566 43.641C1.77071 44.1412 2.39595 44.5163 3.02118 44.5163C2.89613 45.0165 3.0212 45.6417 3.39634 45.8918C3.77147 45.8918 4.52172 45.7667 4.89686 45.7667C5.14695 46.2669 5.39704 46.7671 6.02227 46.8922C6.64749 47.0172 7.14771 46.6421 7.77294 46.7671C7.89798 47.0172 8.14805 48.0176 8.64823 48.3927C9.02337 48.6428 10.0237 48.5178 10.649 48.2677C10.649 48.8929 11.0241 49.5181 11.6493 49.5181C13.2749 49.6432 13.275 49.5181 13.4 49.0179C13.6501 49.0179 13.7751 49.5181 14.0252 49.7682C14.6505 50.2684 15.6508 49.8933 16.0259 49.268C16.276 49.5181 16.4011 49.7682 16.7762 49.8933C17.0263 50.0183 17.5265 50.0183 17.7766 49.8933C18.0267 49.7682 17.9016 49.3931 18.1517 49.268C18.5269 49.143 18.777 49.3931 19.0271 49.5181C19.7773 49.8933 20.7777 49.5181 21.0278 48.7678C21.4029 49.268 22.2782 49.5181 22.5283 49.0179C22.6534 48.7678 23.0285 48.2677 23.0285 48.0176C23.1536 48.3927 23.6537 48.5178 24.0289 48.5178C24.404 48.5178 24.7791 48.2677 25.0292 48.0176C25.2793 47.7675 25.4044 47.5174 25.4044 47.2673C25.6545 47.5174 26.0296 47.6424 26.2797 47.3923C26.4047 47.3923 26.4048 47.2673 26.5298 47.1423C26.6548 47.0172 26.9049 46.7671 26.9049 46.517C26.9049 46.2669 26.905 46.0168 26.7799 45.8918C27.155 45.8918 27.4051 45.6417 27.6552 45.3916C27.7802 45.0165 27.7803 44.7664 27.7803 44.3912C27.7803 44.1412 27.5301 43.766 27.28 43.641C27.6552 43.641 28.2804 43.5159 28.4055 43.1408C28.5305 42.7657 28.5305 42.1404 28.2804 41.8903C28.7806 42.0154 29.0307 41.7653 29.1557 41.2651C29.2808 40.89 29.2808 40.2647 29.2808 39.7646C29.656 39.8896 30.031 39.7646 30.1561 39.3894C30.2811 39.0143 30.2811 38.6391 30.1561 38.264C30.5312 38.389 31.0315 38.139 31.1565 37.7638C31.2816 37.3887 31.1565 36.7635 31.0314 36.5134C31.4066 36.7635 31.9068 36.5134 32.1569 36.2633C32.407 35.8881 32.532 35.513 32.532 35.0128C32.657 35.1379 32.9072 35.1379 33.0322 35.0128C33.1572 34.8878 33.2823 34.7627 33.4073 34.5126C33.5324 34.2625 33.9075 34.2625 34.0325 34.0124C34.4077 32.762 33.0322 32.5119 33.0322 32.5119C33.0322 32.5119 34.4077 30.2611 33.7824 29.2607Z" fill="black"/>
</svg>
