<svg width="50" height="50" viewBox="0 0 50 50" fill="none" xmlns="http://www.w3.org/2000/svg">
<path d="M37.9781 32.4676C38.479 31.591 38.8547 30.9648 39.2304 29.9629C39.4809 29.0863 39.8566 28.2096 39.8566 27.2077C39.9818 25.4545 40.107 24.2021 39.9818 22.5741C39.9818 21.8226 39.8566 20.0694 39.3556 19.0675C39.1051 18.4413 38.6042 16.5628 37.9781 15.6861C36.9762 14.3086 36.9762 14.0581 35.7239 12.8057C34.8472 11.9291 33.7201 11.4282 32.7182 10.9272C29.963 9.67487 26.4564 9.0487 23.3256 9.17393C20.3199 9.29917 17.69 10.5515 15.6863 12.8057C14.3087 14.4338 13.1816 16.4375 12.3049 18.4413C11.1778 20.946 11.0526 23.9516 11.1778 25.4545C11.303 26.0806 11.9292 29.8377 12.8058 31.4657C13.432 32.4676 13.5572 32.9685 14.0582 33.9704C14.6843 35.0975 15.6863 36.4751 16.6882 37.2265C17.3143 37.7275 20.1947 40.6079 23.9518 40.4826C25.3293 40.4826 27.9593 40.4826 29.8378 39.7312C30.5892 39.3555 31.4658 39.105 32.092 38.6041C32.7182 38.2284 34.0958 37.3518 34.9724 36.2246C36.0995 35.0975 37.2267 33.8452 37.9781 32.4676Z" fill="black"/>
<path d="M10.5514 12.0551C10.4262 12.0551 10.301 12.0551 10.0505 11.9299C9.04864 11.4289 7.9215 10.8027 7.04485 10.0513C6.66915 9.80086 6.5439 9.17469 6.79437 8.67375C7.04484 8.29804 7.67106 8.17281 8.172 8.42328C9.04864 9.04945 10.0505 9.67563 11.0524 10.1766C11.5533 10.427 11.6785 11.0532 11.4281 11.4289C11.1776 11.8046 10.9271 12.0551 10.5514 12.0551Z" fill="black"/>
<path d="M1.53413 28.7105C1.03319 28.7105 0.657483 28.5852 0.281778 28.2095C-0.0939261 27.8338 -0.0939261 27.2077 0.281778 26.8319C0.657483 26.4562 1.15842 26.4562 1.53413 26.7067C1.53413 26.7067 1.53417 26.7067 1.65941 26.7067C1.78464 26.7067 1.90986 26.5815 2.0351 26.5815C2.16033 26.4562 2.4108 26.331 2.66127 26.331C2.91174 26.2058 3.16218 26.2058 3.41265 26.2058C3.66312 26.2058 3.91362 26.0805 3.91362 26.0805C4.28932 25.8301 4.91547 25.8301 5.29117 26.331C5.54164 26.7067 5.5417 27.3329 5.04076 27.7086C4.53982 28.0843 4.03884 28.0843 3.66313 28.2095C3.5379 28.2095 3.28747 28.2095 3.16224 28.3348C3.037 28.3348 2.91171 28.46 2.78647 28.46C2.66124 28.5852 2.41082 28.5852 2.28558 28.7105C2.03511 28.5852 1.7846 28.7105 1.53413 28.7105Z" fill="black"/>
<path d="M6.91912 42.4869C6.79388 42.4869 6.54338 42.4869 6.41815 42.3616C5.91721 42.1112 5.79196 41.485 6.16766 40.9841C6.91907 39.8569 8.04619 38.8551 9.29853 38.3541C9.79947 38.1037 10.3004 38.3541 10.5509 38.8551C10.8014 39.356 10.5509 39.8569 10.05 40.1074C9.17335 40.4831 8.29664 41.1093 7.7957 41.9859C7.54523 42.3616 7.29482 42.4869 6.91912 42.4869Z" fill="black"/>
<path d="M24.703 49.9992C24.2021 49.9992 23.7012 49.6235 23.7012 49.1225C23.7012 48.1206 23.7012 47.1188 23.7012 46.1169C23.7012 45.6159 24.2021 45.2402 24.703 45.2402C25.204 45.2402 25.5797 45.7412 25.5797 46.2421C25.5797 47.1188 25.5797 48.1206 25.5797 48.9973C25.5797 49.6235 25.204 49.9992 24.703 49.9992Z" fill="black"/>
<path d="M41.4832 41.9863C41.2327 41.9863 40.857 41.861 40.7318 41.6105L39.229 39.4816C38.9785 39.1059 38.9785 38.4797 39.4795 38.104C39.8552 37.8535 40.4813 37.8535 40.857 38.3544L42.3598 40.4834C42.6103 40.8591 42.6103 41.4853 42.1094 41.861C41.8589 41.9863 41.6084 41.9863 41.4832 41.9863Z" fill="black"/>
<path d="M48.2465 25.829C48.2465 25.829 48.1213 25.829 48.2465 25.829C47.3699 25.829 46.4932 25.5786 45.7418 25.3281C45.2409 25.0776 44.9904 24.5767 45.2408 24.0758C45.4913 23.5748 45.9922 23.3244 46.4932 23.5748C47.1194 23.8253 47.7455 23.9505 48.3717 23.9505C48.8726 23.9505 49.3736 24.4515 49.2484 24.9524C49.1231 25.4533 48.7474 25.829 48.2465 25.829Z" fill="black"/>
<path d="M39.9808 11.4283C39.8556 11.4283 39.8556 11.4283 39.7304 11.4283C39.2294 11.303 38.9789 10.8021 39.1042 10.3012C39.3546 9.54975 40.607 7.67123 41.6089 7.42076C42.1098 7.29552 42.6108 7.67123 42.736 8.17217C42.8613 8.67311 42.4855 9.04881 42.1098 9.29928C41.7341 9.54975 40.9827 10.5516 40.9827 10.8021C40.8575 11.1778 40.4818 11.4283 39.9808 11.4283Z" fill="black"/>
<path d="M24.3272 4.91607C23.8263 4.91607 23.3254 4.54037 23.3254 4.03943V3.78896C23.3254 2.53661 23.3254 2.03567 23.0749 1.28426C22.9496 0.783323 23.2001 0.282384 23.7011 0.0319141C24.202 -0.0933207 24.7029 0.157149 24.9534 0.658088C25.2039 1.65997 25.3291 2.41138 25.3291 3.66372V3.91419C25.3291 4.41513 24.9534 4.91607 24.3272 4.91607C24.4525 4.91607 24.4525 4.91607 24.3272 4.91607Z" fill="black"/>
</svg>
