<svg width="38" height="50" viewBox="0 0 38 50" fill="none" xmlns="http://www.w3.org/2000/svg">
<path d="M1.3596 48.5017C1.48446 45.505 0.485572 42.6332 0.110988 39.6365C-0.138735 37.7636 0.110988 36.0155 0.110988 34.1426C0.235849 30.1471 0.860156 26.2764 0.735294 22.2808C0.735294 20.6576 0.735294 19.0344 0.735294 17.4112C0.860156 14.6643 0.985009 12.167 1.23473 9.42008C1.35959 8.67092 1.60933 7.67203 2.10878 7.04772C2.3585 6.67314 2.85794 5.92397 3.35739 6.54827C3.48225 6.67314 3.73196 7.04772 3.73196 7.17258C3.98168 9.17036 3.9817 11.9173 4.10656 14.04C4.10656 14.914 4.606 15.6631 4.606 15.9129C4.98059 16.9118 4.98057 17.9107 4.98057 18.9095C5.10543 21.2819 5.23032 24.0289 5.35518 26.2764C6.22921 21.2819 7.10321 15.788 7.4778 10.7936C7.72752 7.79689 7.22808 4.55049 8.85128 1.92841C9.22586 1.17924 9.72532 0.430071 10.9739 0.679794C11.848 0.929517 11.3485 4.42563 11.2236 6.29855C10.8491 12.4168 11.4734 24.778 11.8479 24.9029C12.0977 25.0277 12.8469 18.1604 13.4712 11.6676C13.7209 8.79578 14.2203 6.04883 14.2203 3.92619C14.2203 3.05216 14.3452 2.05327 14.7198 1.3041C15.2192 0.430071 15.9684 -0.194235 16.7175 0.0554876C17.0921 0.679794 17.217 4.05105 17.0921 6.04883C16.5927 12.167 17.217 18.9095 17.4667 24.9029C17.4667 24.4034 17.8413 24.1537 17.8413 23.5294C17.7164 21.5316 18.2159 19.5338 18.5904 18.0355C18.965 16.4123 18.5905 14.7891 18.965 13.1659C19.4645 10.2941 19.5893 7.92175 20.4634 5.42452C20.7131 4.67536 20.9628 3.80133 21.8368 3.67647C22.7109 3.67647 23.2103 7.29744 22.9606 10.1693C22.2114 17.0366 23.2103 24.0289 23.5849 31.0211C23.5849 32.1448 23.46 34.3923 23.8346 34.5172C24.2092 34.6421 24.9584 32.3946 25.8324 31.3957C26.5816 30.3968 27.081 29.5228 27.955 28.7736C28.7042 28.1493 29.828 26.6509 30.5771 26.0266C31.9506 24.9029 33.4489 24.1537 34.8224 24.1537C36.1959 24.0289 37.6942 24.2786 37.8191 25.5272C37.8191 26.2764 37.1948 26.6509 36.4456 27.0255C35.8213 27.4001 35.0721 28.0244 34.4478 28.399C33.6987 29.0233 32.9495 29.8973 32.4501 30.6465C31.2014 32.3946 29.9529 34.6421 29.0788 37.0144C28.2048 39.2619 27.7053 41.6343 26.9562 44.0067C26.3319 46.0044 25.4578 48.1271 24.8335 50" fill="black"/>
</svg>
